<?xml version="1.0" encoding="utf-8"?>
<!-- Generator: Adobe Illustrator 17.1.0, SVG Export Plug-In . SVG Version: 6.00 Build 0)  -->
<!DOCTYPE svg PUBLIC "-//W3C//DTD SVG 1.1//EN" "http://www.w3.org/Graphics/SVG/1.1/DTD/svg11.dtd">
<svg version="1.1" id="Layer_1" xmlns="http://www.w3.org/2000/svg" xmlns:xlink="http://www.w3.org/1999/xlink" x="0px" y="0px"
	 viewBox="0 0 240 240" enable-background="new 0 0 240 240" xml:space="preserve">
<path fill="#222222" d="M134.089,45.881c-0.642,0.707-1.222,1.39-1.85,2.026c-0.814,0.823-1.726,1.517-2.818,1.95
	c-0.817,0.323-1.655,0.376-2.507,0.214c-1.195-0.226-1.946-0.979-2.371-2.083c-0.169-0.439-0.296-0.893-0.472-1.434
	c-0.128,0.199-0.228,0.344-0.318,0.495c-1.325,2.219-2.941,4.174-5.118,5.612c-0.995,0.657-2.057,1.145-3.271,1.263
	c-1.385,0.135-2.518-0.514-3.031-1.823c-0.52-1.327-0.489-2.69-0.137-4.043c0.769-2.955,1.589-5.897,2.339-8.856
	c0.206-0.814,0.317-1.671,0.332-2.511c0.015-0.883-0.651-1.309-1.525-1.108c-0.72,0.166-1.29,0.588-1.783,1.106
	c-1.645,1.729-2.697,3.765-3.238,6.097c-0.582,2.514-1.151,5.039-1.913,7.501c-1.218,3.934-3.58,6.987-7.411,8.733
	c-1.425,0.65-2.926,0.961-4.508,0.769c-1.624-0.197-2.625-1.11-3.098-2.647c-0.046-0.15-0.093-0.3-0.143-0.449
	c-0.009-0.027-0.04-0.046-0.087-0.096c-0.111,0.176-0.219,0.342-0.323,0.51c-1.324,2.141-2.911,4.041-5.031,5.443
	c-0.767,0.508-1.593,0.887-2.523,1.007c-1.275,0.165-2.303-0.285-3.063-1.287c-0.414-0.546-0.725-1.171-1.106-1.8
	c-0.085,0.129-0.185,0.276-0.28,0.425c-1.477,2.293-3.235,4.313-5.615,5.716c-1.195,0.704-2.468,1.174-3.882,1.197
	c-1.587,0.026-2.882-0.562-3.893-1.782c-0.06-0.072-0.124-0.14-0.213-0.24c-0.479,0.521-0.933,1.038-1.411,1.53
	c-1.616,1.663-3.388,3.113-5.556,4.013c-1.213,0.503-2.469,0.724-3.784,0.636c-1.899-0.127-3.237-1.329-3.665-3.309
	c-0.404-1.869-0.149-3.7,0.313-5.516c0.716-2.817,1.786-5.507,2.953-8.162c0.079-0.181,0.157-0.362,0.261-0.604
	c-1.327,0.322-2.536,0.235-3.703-0.446c-0.495,1.339-0.973,2.652-1.466,3.961c-1.589,4.223-3.38,8.351-5.825,12.163
	c-2.157,3.363-4.691,6.385-8.077,8.578c-4.898,3.172-10.217,4.094-15.819,2.435c-4.969-1.472-7.965-4.994-9.026-10.004
	c-1.391-6.57,0.668-12.099,5.579-16.581c3.043-2.777,6.632-4.546,10.659-5.421c0.108-0.023,0.215-0.05,0.321-0.081
	c0.025-0.007,0.045-0.035,0.178-0.146c-0.133-0.08-0.271-0.134-0.371-0.228c-1.519-1.419-2.248-3.206-2.379-5.248
	c-0.449-7.003,5.244-11.226,10.058-11.853c1.646-0.215,3.271,0.005,4.819,0.655c3.402,1.428,4.895,5.158,3.503,8.768
	c-0.309,0.801-0.715,1.547-1.384,2.114c-0.543,0.461-1.16,0.685-1.881,0.535c-0.437-0.091-0.717-0.351-0.737-0.799
	c-0.017-0.373-0.021-0.765,0.072-1.121c0.614-2.345-0.299-3.878-2.683-4.457c-3.098-0.753-6.473,0.747-7.871,3.498
	c-1.072,2.11-0.813,4.821,0.691,6.416c0.441,0.467,1.045,0.791,1.608,1.125c0.209,0.124,0.513,0.128,0.772,0.12
	c1.03-0.033,2.054-0.002,3.029,0.365c0.347,0.131,0.691,0.323,0.975,0.56c0.672,0.563,0.667,1.456-0.067,1.923
	c-0.473,0.301-1.057,0.503-1.615,0.579c-1.308,0.178-2.562-0.151-3.793-0.586c-0.236-0.083-0.525-0.111-0.77-0.063
	c-5.838,1.134-10.653,6.202-11.451,12.089c-0.355,2.616-0.107,5.164,1.191,7.525c1.826,3.321,5.224,5.075,8.999,4.702
	c1.544-0.153,3.057-0.411,4.502-0.995c0.115-0.046,0.228-0.097,0.398-0.169c-0.135-0.063-0.211-0.116-0.295-0.134
	c-3.2-0.712-5.24-2.839-5.788-6.094c-0.487-2.898,0.201-5.467,2.228-7.643c2.311-2.481,6.437-3.309,9.505-1.872
	c2.127,0.996,3.234,2.789,3.734,4.998c0.194,0.855,0.257,1.74,0.383,2.627c0.045-0.041,0.133-0.095,0.186-0.172
	c2.731-3.974,4.881-8.23,6.19-12.886c0.076-0.271,0.029-0.624-0.079-0.892c-0.664-1.664-1.254-3.351-1.131-5.171
	c0.047-0.689,0.209-1.424,0.526-2.029c0.775-1.481,2.414-1.497,3.334-0.095c0.538,0.82,0.763,1.755,0.704,2.703
	c-0.071,1.14-0.269,2.277-0.479,3.403c-0.066,0.355,0.019,0.48,0.305,0.598c0.821,0.339,1.624,0.255,2.263-0.318
	c0.589-0.529,1.063-1.189,1.557-1.815c0.222-0.282,0.349-0.636,0.555-0.933c0.178-0.255,0.378-0.511,0.618-0.704
	c0.555-0.444,1.492-0.515,2.005-0.166c0.629,0.429,0.739,1.105,0.531,1.731c-0.37,1.115-0.823,2.209-1.332,3.269
	c-1.008,2.098-1.853,4.244-2.159,6.566c-0.2,1.516-0.376,3.04,0.051,4.55c0.473,1.669,1.592,2.52,3.109,2.388
	c1.079-0.094,2.081-0.428,2.907-1.127c0.61-0.516,1.145-1.122,1.69-1.709c0.093-0.1,0.133-0.32,0.098-0.46
	c-0.734-2.915-0.656-5.86-0.179-8.782c1.69-10.346,5.659-19.788,11.491-28.466c1.058-1.573,2.269-3.03,3.685-4.301
	c0.837-0.751,1.726-1.433,2.848-1.712c1.208-0.301,2.17,0.101,2.612,1.265c0.313,0.825,0.524,1.729,0.568,2.608
	c0.159,3.195-0.58,6.26-1.577,9.264c-2.482,7.476-6.469,14.053-11.899,19.755c-0.652,0.685-1.358,1.317-2.011,2.001
	c-0.19,0.2-0.362,0.48-0.407,0.746c-0.297,1.765-0.442,3.537,0.013,5.3c0.637,2.465,2.396,3.155,4.547,1.789
	c1.469-0.933,2.552-2.244,3.507-3.665c0.518-0.77,1.003-1.569,1.427-2.393c0.217-0.422,0.283-0.926,0.389-1.399
	c0.958-4.285,2.501-8.32,5.114-11.89c1.267-1.732,2.734-3.265,4.63-4.325c0.963-0.539,1.984-0.864,3.114-0.797
	c1.154,0.068,2.089,0.451,2.621,1.71c0.12-0.393,0.241-0.671,0.288-0.961c0.162-1.009,0.864-1.556,1.703-1.932
	c0.817-0.365,1.674-0.642,2.522-0.936c0.595-0.206,0.89,0.06,0.736,0.692c-0.515,2.11-1.058,4.213-1.584,6.32
	c-0.822,3.299-1.674,6.592-2.434,9.905c-0.189,0.823-0.184,1.73-0.073,2.572c0.135,1.029,0.739,1.321,1.753,1.047
	c1.015-0.274,1.725-0.955,2.317-1.776c1.077-1.491,1.733-3.183,2.19-4.941c1.165-4.479,2.272-8.973,3.43-13.453
	c0.159-0.615,0.402-1.241,0.752-1.763c0.283-0.422,0.741-0.783,1.201-1.017c0.796-0.406,1.646-0.713,2.49-1.016
	c0.22-0.079,0.564-0.077,0.733,0.047c0.126,0.093,0.128,0.459,0.074,0.676c-0.207,0.84-0.459,1.669-0.691,2.503
	c-0.028,0.099-0.034,0.204,0.017,0.338c0.087-0.123,0.176-0.244,0.261-0.369c1.282-1.879,2.842-3.453,4.918-4.455
	c0.731-0.353,1.489-0.604,2.315-0.572c1.586,0.06,2.514,0.928,2.762,2.499c0.193,1.221-0.064,2.387-0.358,3.546
	c-0.702,2.761-1.461,5.507-2.143,8.272c-0.186,0.755-0.258,1.558-0.246,2.336c0.019,1.162,0.784,1.628,1.788,1.036
	c2.348-1.384,4.032-3.249,4.59-6.077c0.844-4.283,2.4-8.315,4.873-11.95c1.234-1.814,2.663-3.442,4.583-4.571
	c0.824-0.484,1.701-0.819,2.67-0.865c1.514-0.072,2.78,0.335,3.535,1.931c0.124-0.385,0.255-0.662,0.3-0.952
	c0.232-1.496,1.17-2.299,2.559-2.698c0.544-0.156,1.07-0.372,1.609-0.547c0.692-0.225,1.05,0.102,0.867,0.816
	c-0.374,1.463-0.775,2.92-1.16,4.381c-1.704,6.469-3.357,12.951-5.128,19.401c-0.895,3.26-2,6.462-3.01,9.69
	c-0.031,0.101-0.053,0.205-0.089,0.345c1.95,0.059,3.838-0.118,5.695-0.59c2.874-0.73,5.148-2.308,6.778-4.799
	c0.197-0.302,0.416-0.596,0.666-0.855c0.383-0.397,0.838-0.483,1.143-0.266c0.316,0.225,0.433,0.751,0.143,1.206
	c-0.702,1.098-1.357,2.252-2.216,3.219c-2.292,2.581-5.271,3.953-8.648,4.428c-1.46,0.205-2.951,0.21-4.429,0.262
	c-0.308,0.011-0.436,0.103-0.566,0.353c-1.783,3.429-4.043,6.5-6.919,9.098c-4.038,3.647-8.753,5.846-14.165,6.463
	c-3.603,0.411-7.177,0.256-10.649-0.922c-1.743-0.591-3.338-1.448-4.491-2.928c-1.713-2.197-1.732-4.633-0.792-7.117
	c0.919-2.426,2.749-4.073,4.92-5.374c2.464-1.477,5.162-2.311,7.971-2.823c2.303-0.42,4.629-0.565,6.964-0.539
	c3.296,0.037,6.578,0.284,9.85,0.691c1.188,0.148,2.386,0.21,3.577,0.332c0.328,0.034,0.478-0.073,0.575-0.383
	c0.833-2.674,1.682-5.343,2.519-8.015c0.245-0.781,0.469-1.568,0.699-2.354C134.058,46.111,134.064,46.021,134.089,45.881z
	 M129.484,59.518c-0.757-0.057-1.474-0.099-2.189-0.166c-3.941-0.368-7.89-0.588-11.849-0.531c-2.052,0.03-4.088,0.236-6.066,0.837
	c-3.214,0.976-5.603,2.943-5.734,6.632c-0.057,1.606,0.346,3.065,1.492,4.245c1.321,1.361,3.008,1.969,4.839,2.091
	c4.213,0.282,8.094-0.76,11.569-3.185c3.533-2.465,5.975-5.831,7.856-9.647C129.434,59.728,129.445,59.653,129.484,59.518z
	 M69.696,51.67c0.068,0.034,0.137,0.068,0.205,0.102c0.025-0.06,0.036-0.131,0.076-0.178c4.861-5.778,8.62-12.178,10.911-19.398
	c0.61-1.924,1.112-3.883,1.07-5.925c-0.011-0.522-0.123-1.066-0.307-1.555c-0.191-0.51-0.687-0.629-1.129-0.309
	c-0.353,0.255-0.719,0.55-0.944,0.911c-0.924,1.481-1.898,2.943-2.67,4.503c-2.613,5.28-4.556,10.816-6.028,16.516
	C70.426,48.099,70.088,49.892,69.696,51.67z M128.559,41.739c0.086,0.354,0.193,1.073,0.441,1.74
	c0.226,0.609,0.759,0.896,1.433,0.877c1.027-0.029,1.832-0.529,2.539-1.212c1.214-1.174,2.064-2.612,2.605-4.178
	c0.79-2.287,1.433-4.626,2.114-6.95c0.257-0.876,0.476-1.767,0.318-2.698c-0.266-1.578-1.444-2.24-2.876-1.519
	c-0.633,0.318-1.225,0.786-1.717,1.301c-1.391,1.454-2.305,3.221-3.077,5.06C129.371,36.467,128.682,38.846,128.559,41.739z
	 M84.073,54.225c0.083,0.374,0.17,1.115,0.418,1.798c0.301,0.83,1.004,1.14,1.871,0.978c0.752-0.14,1.39-0.506,1.944-1.014
	c1.402-1.287,2.379-2.865,2.934-4.668c0.639-2.074,1.192-4.175,1.736-6.277c0.279-1.077,0.351-2.181-0.057-3.257
	c-0.394-1.038-1.209-1.421-2.27-1.091c-0.778,0.242-1.386,0.736-1.933,1.312c-1.223,1.286-2.063,2.816-2.766,4.426
	C84.914,48.802,84.213,51.257,84.073,54.225z M29.753,66.205c0.057,0.434,0.092,1.067,0.228,1.678
	c0.741,3.319,3.28,4.735,6.725,3.548c0.097-0.033,0.193-0.108,0.259-0.189c1.62-1.981,2.625-4.162,2.3-6.811
	c-0.419-3.409-3.922-5.186-6.892-3.452C30.457,62.098,29.82,63.91,29.753,66.205z"/>
<path fill="#222222" d="M214.068,60.383c-0.084-0.128-0.167-0.255-0.25-0.383"/>
<path fill="#222222" d="M397.736,261.213"/>
<path fill="#222222" d="M231.717,92.134c-6.329,1.076-7.883-1.212-11.245-3.986c-8.289-6.831-13.272-13.867-18.612-22.476
	l-4.159-6.677l-0.08,0.116c-0.13-0.152-0.224-0.241-0.26-0.241c-0.759,0.005-3.212,5.296-4.065,6.778
	c-5.063,8.771-9.827,15.959-17.899,23.047c-3.278,2.879-4.755,5.214-11.116,4.338c14.98-9.537,23.541-23.349,31.722-39.586
	c0.322-0.638,0.857-0.539,1.486-0.035c0.526-0.377,0.978-0.406,1.28,0.15C207.457,69.534,216.445,83.072,231.717,92.134z
	 M180.548,71.884c1.923-2.619,2.382-6.003,4.882-2.71c-0.034-0.95,1.707-2.064,1.628-2.983c-0.08-0.884-3.887-5.161-4.883-3.524
	c-5.274,8.674-14.188,18.572-22.777,24.402c-3.311,2.247-6.884,3.509-9.761,5.964c7.074,0.748,9.33-1.363,13.557-4.338
	C169.409,84.319,176.65,77.188,180.548,71.884z M169.974,75.681c-1.548-0.263-2.748-5.145-4.338-3.524
	c-7.79,7.933-20.784,15.581-33.351,18.708l0.678,0.983l-0.136,1.185c5.485,0.206,8.612-1.322,12.473-2.981
	c7.992-3.433,15.25-7.899,20.878-13.014C167.282,79.632,168.868,76.845,169.974,75.681z M155.075,132h-6.606
	c-0.175,0-0.389-0.886-0.641-1.757c-0.11-0.396-0.189-0.443-0.238-0.569c-1.14,1.109-2.361,1.939-3.66,2.494
	c-1.298,0.555-2.685,0.832-4.157,0.832c-2.598,0-4.647-0.705-6.143-2.115c-1.497-1.41-2.249-3.193-2.249-5.345
	c0-1.426,0.337-2.697,1.018-3.814c0.682-1.118,1.627-1.972,2.854-2.567c1.227-0.594,2.98-1.112,5.294-1.557
	c3.12-0.585,5.453-1.132,6.453-1.64v-0.665c0-1.283-0.283-2.197-0.917-2.744c-0.634-0.547-1.795-0.82-3.554-0.82
	c-1.189,0-2.116,0.235-2.78,0.701s-1.203,1.287-1.614,2.459l-6.059-1.094c0.682-2.438,1.854-4.246,3.516-5.419
	c1.664-1.172,4.134-1.761,7.413-1.761c2.978,0,5.195,0.346,6.653,1.051c1.458,0.705,2.484,1.587,3.077,2.671
	c0.594,1.085,0.89,3.05,0.89,5.95l-0.071,7.74c0,2.217,0.107,3.746,0.32,4.798C154.088,129.882,154.488,131,155.075,132z
	 M147,120.312c-1,0.286-2.176,0.626-4.03,1.022c-1.853,0.396-3.031,0.784-3.6,1.165c-0.871,0.617-1.308,1.402-1.308,2.352
	c0,0.935,0.346,1.742,1.043,2.423c0.697,0.682,1.579,1.022,2.656,1.022c1.203,0,2.343-0.396,3.437-1.189
	c0.808-0.602,1.321-1.339,1.575-2.21c0.174-0.57,0.227-1.655,0.227-3.255V120.312z M165,132v-7.648l3.328-3.47L174.888,132h7.199
	l-9.243-15.898l8.624-9.102h-8.222L165,116.084V98h-6v34H165z M191,132v-7.648l3.251-3.47L200.735,132h7.198l-9.241-15.898
	l8.624-9.102h-8.222L191,116.084V98h-6v34H191z M232.614,132h-6.606c-0.174,0-0.387-0.886-0.639-1.757
	c-0.11-0.396-0.19-0.443-0.238-0.569c-1.138,1.109-2.357,1.939-3.656,2.494c-1.299,0.555-2.683,0.832-4.153,0.832
	c-2.598,0-4.642-0.705-6.138-2.115c-1.497-1.41-2.233-3.193-2.233-5.345c0-1.426,0.366-2.697,1.047-3.814
	c0.681-1.118,1.683-1.972,2.911-2.567c1.228-0.594,3.096-1.112,5.409-1.557c3.12-0.585,4.682-1.132,6.682-1.64v-0.665
	c0-1.283-0.514-2.197-1.145-2.744c-0.635-0.546-2.026-0.82-3.786-0.82c-1.187,0-2.113,0.235-2.779,0.701
	c-0.665,0.469-1.204,1.287-1.617,2.459l-6.058-1.094c0.681-2.438,1.853-4.246,3.516-5.419c1.665-1.172,4.135-1.761,7.413-1.761
	c2.979,0,5.197,0.346,6.652,1.051c1.458,0.705,2.484,1.587,3.078,2.671c0.593,1.085,0.892,3.05,0.892,5.95l-0.072,7.74
	c0,2.217,0.105,3.746,0.32,4.798C231.629,129.882,232.029,131,232.614,132z M225,120h-0.393c-0.855,1-2.205,0.782-4.06,1.178
	c-1.853,0.396-3.061,0.94-3.632,1.321c-0.871,0.617-1.301,1.402-1.301,2.352c0,0.935,0.36,1.742,1.059,2.423
	c0.697,0.682,1.607,1.022,2.685,1.022c1.204,0,2.402-0.396,3.495-1.189c0.808-0.602,1.435-1.339,1.688-2.21
	c0.175-0.57,0.457-1.655,0.457-3.255V120z"/>
<path id="path12261" fill="#222222" d="M128.729,161.576c0-0.236-0.065-0.405-0.198-0.516c-0.148-0.119-0.403-0.182-0.759-0.182
	h-0.511v1.405h0.617C128.448,162.283,128.729,162.047,128.729,161.576 M129.526,164.506h-0.703l-0.448-0.989
	c-0.228-0.495-0.471-0.743-0.736-0.743h-0.378v1.732h-0.579v-4.121h1.16c0.516,0,0.903,0.112,1.169,0.345
	c0.225,0.2,0.338,0.457,0.338,0.777c0,0.284-0.092,0.522-0.277,0.72c-0.18,0.2-0.439,0.336-0.77,0.405v0.018
	c0.23,0.054,0.459,0.306,0.682,0.761l0.543,1.097L129.526,164.506z M130.81,162.486c0-0.811-0.277-1.495-0.829-2.038
	c-0.554-0.543-1.229-0.815-2.027-0.815c-0.822,0-1.506,0.272-2.049,0.82c-0.543,0.549-0.813,1.229-0.813,2.033
	c0,0.822,0.281,1.509,0.84,2.056c0.552,0.547,1.227,0.817,2.022,0.817c0.79,0,1.466-0.272,2.022-0.826
	C130.533,163.988,130.81,163.303,130.81,162.486 M131.199,162.468c0,0.91-0.313,1.673-0.941,2.288
	c-0.628,0.619-1.398,0.928-2.319,0.928c-0.928,0-1.698-0.304-2.31-0.901c-0.612-0.606-0.916-1.367-0.916-2.29
	c0-0.903,0.311-1.662,0.932-2.285c0.621-0.621,1.396-0.932,2.322-0.932c0.907,0,1.668,0.297,2.285,0.889
	C130.884,160.773,131.199,161.538,131.199,162.468"/>
<path id="path12265" fill="#222222" d="M43.128,173.959h-1.997v-11.43c0-0.903,0.059-2.002,0.166-3.299h-0.045
	c-0.187,0.759-0.358,1.308-0.509,1.648l-5.805,13.08h-0.973l-5.816-12.986c-0.164-0.363-0.335-0.946-0.509-1.743h-0.043
	c0.061,0.682,0.095,1.788,0.095,3.321v11.407h-1.925v-17.021h2.635l5.222,11.869c0.394,0.894,0.648,1.574,0.772,2.038h0.083
	c0.34-0.93,0.61-1.628,0.815-2.087l5.334-11.819h2.499v17.021L43.128,173.959z"/>
<path id="path12267" fill="#222222" d="M49.272,173.958h-1.941v-12.155h1.941V173.958z M49.607,157.446
	c0,0.358-0.126,0.657-0.376,0.903c-0.245,0.245-0.549,0.369-0.905,0.369c-0.347,0-0.649-0.119-0.896-0.356
	c-0.248-0.239-0.369-0.543-0.369-0.917c0-0.351,0.122-0.651,0.369-0.894c0.248-0.243,0.549-0.36,0.896-0.36
	c0.356,0,0.66,0.117,0.905,0.36C49.481,156.795,49.607,157.095,49.607,157.446"/>
<path id="path12271" fill="#222222" d="M61.401,173.396c-0.932,0.572-2.045,0.856-3.33,0.856c-1.743,0-3.146-0.579-4.217-1.734
	c-1.04-1.121-1.565-2.569-1.565-4.344c0-1.991,0.57-3.603,1.718-4.828c1.142-1.227,2.677-1.84,4.609-1.84
	c1.056,0,1.993,0.207,2.812,0.617v1.997c-0.907-0.637-1.867-0.953-2.896-0.953c-1.238,0-2.245,0.432-3.026,1.295
	c-0.813,0.883-1.225,2.063-1.225,3.535c0,1.414,0.376,2.533,1.124,3.36c0.75,0.822,1.747,1.234,3.006,1.234
	c1.063,0,2.058-0.349,2.99-1.045L61.401,173.396L61.401,173.396z"/>
<path id="path12275" fill="#222222" d="M70.686,163.775c-0.342-0.263-0.835-0.392-1.486-0.392c-0.79,0-1.455,0.354-1.993,1.067
	c-0.61,0.797-0.914,1.901-0.914,3.31v6.197h-1.945v-12.155h1.945v2.506h0.047c0.286-0.887,0.727-1.57,1.317-2.054
	c0.552-0.441,1.175-0.664,1.862-0.664c0.518,0,0.903,0.056,1.166,0.166L70.686,163.775L70.686,163.775z"/>
<path id="path12279" fill="#222222" d="M81.529,167.903c0-1.556-0.351-2.745-1.054-3.56c-0.682-0.784-1.635-1.175-2.862-1.175
	c-1.209,0-2.18,0.396-2.905,1.189c-0.768,0.847-1.151,2.042-1.151,3.594c0,1.455,0.365,2.596,1.101,3.411
	c0.732,0.82,1.718,1.229,2.954,1.229c1.279,0,2.258-0.416,2.929-1.245C81.2,170.535,81.529,169.389,81.529,167.903 M83.524,167.834
	c0,1.937-0.547,3.493-1.637,4.659c-1.094,1.171-2.567,1.756-4.418,1.756c-1.824,0-3.276-0.585-4.341-1.756
	c-1.043-1.128-1.567-2.619-1.567-4.472c0-2.114,0.592-3.745,1.781-4.902c1.099-1.074,2.569-1.614,4.411-1.614
	c1.813,0,3.229,0.565,4.249,1.684C83.013,164.315,83.524,165.864,83.524,167.834"/>
<path id="path12283" fill="#222222" d="M93.172,170.706c0,0.995-0.371,1.819-1.117,2.477c-0.813,0.712-1.93,1.067-3.335,1.067
	c-1.151,0-2.16-0.241-3.015-0.732v-2.092c0.953,0.775,2.004,1.164,3.159,1.164c1.54,0,2.312-0.567,2.312-1.698
	c0-0.475-0.169-0.869-0.511-1.173c-0.342-0.311-1.007-0.682-1.995-1.117c-1.018-0.446-1.743-0.903-2.171-1.378
	c-0.513-0.563-0.772-1.295-0.772-2.195c0-1.009,0.403-1.849,1.2-2.517c0.799-0.671,1.826-1.007,3.087-1.007
	c0.966,0,1.831,0.189,2.599,0.57v1.959c-0.802-0.579-1.718-0.867-2.758-0.867c-0.644,0-1.162,0.16-1.547,0.473
	c-0.389,0.32-0.586,0.727-0.586,1.225c0,0.538,0.164,0.957,0.489,1.257c0.288,0.277,0.901,0.615,1.824,1.009
	c1.038,0.435,1.788,0.885,2.245,1.347C92.873,169.06,93.172,169.803,93.172,170.706"/>
<path id="path12287" fill="#222222" d="M105.062,167.903c0-1.556-0.351-2.745-1.056-3.56c-0.68-0.784-1.635-1.175-2.86-1.175
	c-1.209,0-2.18,0.396-2.909,1.189c-0.766,0.847-1.146,2.042-1.146,3.594c0,1.455,0.365,2.596,1.094,3.411
	c0.741,0.82,1.727,1.229,2.961,1.229c1.281,0,2.258-0.416,2.929-1.245C104.733,170.535,105.062,169.389,105.062,167.903
	 M107.062,167.834c0,1.937-0.552,3.493-1.644,4.659c-1.09,1.171-2.562,1.756-4.413,1.756c-1.826,0-3.279-0.585-4.344-1.756
	c-1.043-1.128-1.567-2.619-1.567-4.472c0-2.114,0.597-3.745,1.779-4.902c1.099-1.074,2.572-1.614,4.416-1.614
	c1.813,0,3.227,0.565,4.245,1.684C106.546,164.315,107.062,165.864,107.062,167.834"/>
<path id="path12291" fill="#222222" d="M115.635,157.673c-0.383-0.212-0.808-0.32-1.292-0.32c-1.362,0-2.038,0.858-2.038,2.576
	v1.873h2.849v1.648h-2.849v10.507h-1.948v-10.507h-2.067v-1.648h2.067v-1.97c0-1.338,0.41-2.387,1.243-3.144
	c0.714-0.658,1.587-0.984,2.626-0.984c0.601,0,1.07,0.072,1.41,0.212V157.673z"/>
<path id="path12295" fill="#222222" d="M123.313,173.836c-0.459,0.264-1.072,0.394-1.828,0.394c-2.121,0-3.182-1.196-3.182-3.587
	v-7.19h-2.085v-1.651h2.085v-2.965c0.621-0.196,1.268-0.41,1.95-0.63v3.596h3.06v1.651h-3.06v6.859c0,0.815,0.133,1.398,0.412,1.736
	c0.282,0.349,0.741,0.52,1.389,0.52c0.484,0,0.903-0.13,1.259-0.392L123.313,173.836L123.313,173.836z"/>
<path id="path12299" fill="#222222" d="M18.139,221.397c0,0.952-0.34,1.777-1.027,2.472c-0.685,0.693-1.516,1.043-2.49,1.043
	c-0.953,0-1.763-0.349-2.427-1.043c-0.664-0.696-0.995-1.52-0.995-2.472c0-0.979,0.331-1.806,0.995-2.49
	c0.664-0.687,1.475-1.027,2.427-1.027c0.975,0,1.806,0.345,2.49,1.04C17.799,219.616,18.139,220.442,18.139,221.397"/>
<path id="path12303" fill="#222222" d="M61.701,224.196h-6.345l-23.033-35.571c-0.538-0.856-1.002-1.786-1.396-2.801h-0.189
	c0.164,0.952,0.248,2.997,0.248,6.129v32.243h-5.231v-44.627h6.789l22.344,35.01c0.889,1.389,1.497,2.384,1.806,2.984h0.124
	c-0.207-1.283-0.315-3.472-0.315-6.562v-31.432h5.199L61.701,224.196L61.701,224.196z"/>
<path id="path12307" fill="#222222" d="M95.235,224.196H71.582v-44.627h22.626v4.729H76.809v14.846h16.122v4.731H76.809v15.591
	h18.426V224.196z"/>
<path id="path12311" fill="#222222" d="M131.111,184.298h-12.855v39.899h-5.229v-39.899h-12.88v-4.731h30.964L131.111,184.298
	L131.111,184.298z"/>
</svg>
