<?xml version="1.0" encoding="utf-8"?>
<!-- Generator: Adobe Illustrator 17.1.0, SVG Export Plug-In . SVG Version: 6.00 Build 0)  -->
<!DOCTYPE svg PUBLIC "-//W3C//DTD SVG 1.1//EN" "http://www.w3.org/Graphics/SVG/1.1/DTD/svg11.dtd">
<svg version="1.1" id="Layer_1" xmlns="http://www.w3.org/2000/svg" xmlns:xlink="http://www.w3.org/1999/xlink" x="0px" y="0px"
	 viewBox="0 0 240 240" enable-background="new 0 0 240 240" xml:space="preserve">
<path fill="#222222" d="M119.5,20C77.35,20,32,32.706,32,60.625v118.75C32,207.281,77.35,220,119.5,220
	c42.144,0,87.5-12.719,87.5-40.625V60.625C207,32.706,161.638,20,119.5,20z M195,179.375c0,15.525-33.581,28.125-75,28.125
	c-41.425,0-75-12.6-75-28.125v-23.35c12.912,13.306,44.062,20.225,75,20.225s62.088-6.919,75-20.225V179.375z M195,142h-0.025
	c0,0,0.025,0.069,0.025,0.131c0,15.431-33.581,27.9-75,27.9s-75-12.453-75-27.884c0-0.062,0.025-0.147,0.025-0.147H45v-23.475
	c12.912,13.306,44.062,20.225,75,20.225s62.088-6.919,75-20.225V142z M195,104h-0.025c0,0,0.025,0.319,0.025,0.381
	c0,15.431-33.581,28.025-75,28.025s-75-12.641-75-28.072c0-0.062,0.025-0.334,0.025-0.334H45V82.9
	c16.381,12.481,46.406,18.35,75,18.35s58.619-5.869,75-18.35V104z M120,88.75c-41.425,0-75-12.6-75-28.125
	C45,45.087,78.575,32.5,120,32.5c41.419,0,75,12.587,75,28.125C195,76.15,161.419,88.75,120,88.75z"/>
</svg>
