<?xml version="1.0" encoding="utf-8"?>
<!-- Generator: Adobe Illustrator 17.1.0, SVG Export Plug-In . SVG Version: 6.00 Build 0)  -->
<!DOCTYPE svg PUBLIC "-//W3C//DTD SVG 1.1//EN" "http://www.w3.org/Graphics/SVG/1.1/DTD/svg11.dtd">
<svg version="1.1" id="Layer_1" xmlns="http://www.w3.org/2000/svg" xmlns:xlink="http://www.w3.org/1999/xlink" x="0px" y="0px"
	 viewBox="0 0 512 512" enable-background="new 0 0 512 512" xml:space="preserve">
<g>
	<defs>
		<rect id="SVGID_1_" x="60.107" width="451.893" height="512"/>
	</defs>
	<clipPath id="SVGID_2_">
		<use xlink:href="#SVGID_1_"  overflow="visible"/>
	</clipPath>
	<g clip-path="url(#SVGID_2_)">
		
			<linearGradient id="SVGID_3_" gradientUnits="userSpaceOnUse" x1="354.5318" y1="610.6337" x2="354.5318" y2="233.2883" gradientTransform="matrix(0.866 -0.5 0.5 0.866 -94.0664 162.4913)">
			<stop  offset="0" style="stop-color:#6BA300"/>
			<stop  offset="1" style="stop-color:#8DD900"/>
		</linearGradient>
		<path fill-rule="evenodd" clip-rule="evenodd" fill="url(#SVGID_3_)" d="M247.54,234.038
			c-15.053,8.69-20.217,27.961-11.525,43.013l157.439,272.691c8.69,15.055,27.96,20.217,43.013,11.525l163.613-94.463
			c15.055-8.69,20.217-27.958,11.525-43.013L454.166,151.099c-8.69-15.052-27.958-20.216-43.013-11.525L247.54,234.038z"/>
		<path fill-rule="evenodd" clip-rule="evenodd" fill="#6BA300" d="M444.338,574.903c0.105,0.182,0.209,0.363,0.314,0.545
			c4.49,7.103,13.848,9.457,21.191,5.215c0.185-0.105,0.365-0.209,0.545-0.314l26.726-15.43c0.182-0.105,0.363-0.209,0.543-0.314
			c6.925-4.385,9.356-13.399,5.535-20.645l-0.316-0.545l-7.872-13.636l-13.634,7.872l-27.271,15.744l-13.632,7.872L444.338,574.903z
			"/>
		<path fill-rule="evenodd" clip-rule="evenodd" fill="#6BA300" d="M553.414,511.927c0.107,0.182,0.209,0.363,0.316,0.545
			c4.49,7.103,13.846,9.457,21.193,5.215c0.18-0.103,0.363-0.209,0.543-0.314l26.726-15.43c0.18-0.103,0.363-0.209,0.545-0.314
			c6.921-4.385,9.352-13.397,5.531-20.645l-0.316-0.545l-7.872-13.636l-13.632,7.872l-27.269,15.744l-13.636,7.872L553.414,511.927z
			"/>
		<path fill-rule="evenodd" clip-rule="evenodd" fill="#CED900" d="M299.222,131.48c13.179-7.61,58.759,38.795,58.759,38.795
			l-54.54,31.488C303.441,201.763,285.352,139.488,299.222,131.48z"/>
		<path fill-rule="evenodd" clip-rule="evenodd" fill="#CED900" d="M260.428,190.237c6.599-3.81,29.378,19.398,29.378,19.398
			l-27.269,15.744C262.538,225.378,253.501,194.235,260.428,190.237z"/>
		<path fill-rule="evenodd" clip-rule="evenodd" fill="#CED900" d="M369.506,127.261c6.597-3.81,29.376,19.398,29.376,19.398
			l-27.269,15.744C371.613,162.403,362.577,131.261,369.506,127.261z"/>
		<path fill-rule="evenodd" clip-rule="evenodd" fill="#6BA300" d="M516.645,259.275c0,0-46.93-81.205-46.926-81.281
			c-0.107-42.672,10.316-78.528,33.388-91.508c42.018-23.655,110.066,70.107,102.671,87.612
			c-4.859,11.483-35.707-20.618-41.619-10.876c-7.208,11.869,26.867,43.85,20.516,56.776c-6.154,12.52-39.743-19.037-45.641-7.971
			c-5.088,9.578,24.547,47.685,17.292,61.062C550.519,283.81,516.645,259.275,516.645,259.275z"/>
		<path fill-rule="evenodd" clip-rule="evenodd" fill="#6BA300" d="M298.458,385.247c0,0-46.861-81.246-46.928-81.281
			c-36.902-21.428-73.164-30.33-95.943-16.839c-41.494,24.563,5.683,130.375,24.54,132.722c12.374,1.535-0.002-41.231,11.39-41.482
			c13.883-0.305,24.559,45.184,38.913,46.155c13.917,0.933,3.383-43.935,15.916-43.511c10.838,0.383,29.022,45.102,44.236,45.505
			C302.769,426.849,298.458,385.247,298.458,385.247z"/>
		<path fill-rule="evenodd" clip-rule="evenodd" fill="#6BA300" d="M563.586,340.62c77.424,20.744,80.855-51.237,105.033-59.743
			c24.175-8.504,16.519,98.643-57.801,141.551C610.801,422.437,563.586,340.62,563.586,340.62z"/>
		
			<linearGradient id="Tummy_1_" gradientUnits="userSpaceOnUse" x1="354.5295" y1="610.6346" x2="354.5295" y2="453.1923" gradientTransform="matrix(0.866 -0.5 0.5 0.866 -94.0664 162.4913)">
			<stop  offset="0" style="stop-color:#8CD700;stop-opacity:0"/>
			<stop  offset="1" style="stop-color:#8CD700"/>
		</linearGradient>
		<path id="Tummy" fill-rule="evenodd" clip-rule="evenodd" fill="url(#Tummy_1_)" d="M420.103,532.927l8.563,14.832
			c4.315,7.474,13.907,9.981,21.432,5.635l136.349-78.719c7.523-4.344,10.149-13.905,5.834-21.379l-8.565-14.832
			c-30.133-52.194-98.988-86.856-144.163-60.774C394.378,403.772,389.969,480.733,420.103,532.927z"/>
		<path id="Tummy_Stripe_1_" opacity="0.25" fill-rule="evenodd" clip-rule="evenodd" fill="#FFFFFF" d="M420.103,532.927
			l0.619,1.07l163.613-94.463l-0.619-1.07c-5.037-8.727-11.148-16.957-18.068-24.497l-157.726,91.062
			C410.993,514.795,415.065,524.2,420.103,532.927z"/>
		<path id="Tummy_Stripe" opacity="0.35" fill-rule="evenodd" clip-rule="evenodd" fill="#FFFFFF" d="M540.651,392.04
			c-10.496-7.347-21.738-13.216-33.142-17.224l-104.424,60.288c-2.23,11.88-2.768,24.553-1.652,37.312L540.651,392.04z"/>
		<path id="Tooth_3_" fill-rule="evenodd" clip-rule="evenodd" fill="#FFFFFF" d="M368.331,397.577
			c-6.939,2.212-22.929-25.52-22.929-25.52l28.708-9.182C374.11,362.875,375.611,395.24,368.331,397.577z"/>
		<path id="Tooth_2_" fill-rule="evenodd" clip-rule="evenodd" fill="#FFFFFF" d="M491.988,326.183
			c5.387-4.903-10.639-32.616-10.639-32.616l-22.304,20.27C459.045,313.837,486.324,331.32,491.988,326.183z"/>
		
			<path id="Mouth_1_" fill-rule="evenodd" clip-rule="evenodd" fill="none" stroke="#000000" stroke-width="3" stroke-linecap="round" stroke-linejoin="round" stroke-miterlimit="10" d="
			M326.259,370.384c49.163,3.706,143.995-52.037,163.613-94.464"/>
		<path id="Nostril_3_" fill-rule="evenodd" clip-rule="evenodd" d="M408.373,304.794c-3.473-6.018-3.86-12.314-0.843-14.057
			c3.02-1.743,8.278,1.741,11.753,7.759c3.473,6.018,3.862,12.314,0.842,14.057C417.108,314.295,411.848,310.812,408.373,304.794z"
			/>
		<path id="Nostril_2_" fill-rule="evenodd" clip-rule="evenodd" d="M383.833,318.963c-3.475-6.018-3.862-12.314-0.845-14.057
			c3.02-1.743,8.278,1.741,11.753,7.759c3.472,6.018,3.862,12.314,0.842,14.057C392.566,328.465,387.308,324.981,383.833,318.963z"
			/>
		<path id="Eye_3_" fill-rule="evenodd" clip-rule="evenodd" fill="#FFFFFF" d="M392.363,264.468
			c-11.859-20.543-19.003-48.534-3.95-57.225c15.053-8.691,46.631,5.195,58.49,25.737c11.851,20.525,9.248,44.23-5.804,52.921
			C426.044,294.592,404.214,284.992,392.363,264.468z"/>
		<path id="Eye_2_" fill-rule="evenodd" clip-rule="evenodd" fill="#FFFFFF" d="M365.094,280.211
			c-11.859-20.543-32.529-40.725-47.58-32.035c-15.055,8.69-18.819,42.98-6.958,63.523c11.849,20.525,33.681,30.125,48.734,21.434
			C374.344,324.442,376.945,300.736,365.094,280.211z"/>
		<path id="Pupil_3_" fill-rule="evenodd" clip-rule="evenodd" d="M398.603,259.532c-6.517-11.289-2.645-25.742,8.647-32.26
			c11.287-6.518,25.74-2.646,32.259,8.644c6.519,11.289,2.645,25.742-8.643,32.259C419.574,274.694,405.122,270.822,398.603,259.532
			z"/>
		<path id="Pupil_2_" fill-rule="evenodd" clip-rule="evenodd" d="M316.797,306.764c-6.517-11.289-2.645-25.742,8.645-32.26
			c11.289-6.518,25.742-2.646,32.26,8.644c6.517,11.289,2.645,25.742-8.645,32.259C337.768,321.926,323.316,318.053,316.797,306.764
			z"/>
		<path id="Reflection_3_" fill-rule="evenodd" clip-rule="evenodd" fill="#FFFFFF" d="M339.847,285.264
			c-4.147-1.096-6.886-4.411-6.088-7.393c0.791-2.954,4.821-4.457,8.969-3.36c4.139,1.123,6.878,4.439,6.086,7.393
			C348.014,284.886,343.985,286.388,339.847,285.264z"/>
		<path id="Reflection_2_" fill-rule="evenodd" clip-rule="evenodd" fill="#FFFFFF" d="M421.653,238.032
			c-4.145-1.097-6.886-4.411-6.086-7.393c0.791-2.954,4.821-4.457,8.969-3.36c4.137,1.125,6.878,4.439,6.086,7.393
			C429.822,237.655,425.792,239.156,421.653,238.032z"/>
		<path opacity="0.1" fill-rule="evenodd" clip-rule="evenodd" d="M444.338,574.903c0.105,0.182,0.209,0.363,0.314,0.545
			c4.49,7.103,13.848,9.457,21.191,5.215c0.185-0.105,0.365-0.209,0.545-0.314l26.726-15.43c0.182-0.105,0.363-0.209,0.543-0.314
			c6.925-4.385,9.356-13.399,5.535-20.645l-0.316-0.545l-7.872-13.636l-13.634,7.872l-27.271,15.744l-13.632,7.872L444.338,574.903z
			"/>
		<path opacity="0.1" fill-rule="evenodd" clip-rule="evenodd" d="M553.414,511.927c0.107,0.182,0.209,0.363,0.316,0.545
			c4.49,7.103,13.846,9.457,21.193,5.215c0.18-0.103,0.363-0.209,0.543-0.314l26.726-15.43c0.18-0.103,0.363-0.209,0.545-0.314
			c6.921-4.385,9.352-13.397,5.531-20.645l-0.316-0.545l-7.872-13.636l-13.632,7.872l-27.269,15.744l-13.636,7.872L553.414,511.927z
			"/>
		
			<linearGradient id="SVGID_4_" gradientUnits="userSpaceOnUse" x1="352.0152" y1="201.2852" x2="387.598" y2="201.2852" gradientTransform="matrix(0.866 -0.5 0.5 0.866 -94.0664 162.4913)">
			<stop  offset="0" style="stop-color:#000000;stop-opacity:0"/>
			<stop  offset="1" style="stop-color:#000000"/>
		</linearGradient>
		<path opacity="0.15" fill-rule="evenodd" clip-rule="evenodd" fill="url(#SVGID_4_)" d="M299.222,131.48
			c-1.181,0.682-2.15,1.776-2.884,3.192c15.623,1.404,48.006,43.475,48.006,43.475l13.637-7.872
			C357.981,170.275,312.401,123.871,299.222,131.48z"/>
		
			<linearGradient id="SVGID_5_" gradientUnits="userSpaceOnUse" x1="416.6073" y1="217.03" x2="434.8285" y2="217.03" gradientTransform="matrix(0.866 -0.5 0.5 0.866 -94.0664 162.4913)">
			<stop  offset="0" style="stop-color:#000000;stop-opacity:0"/>
			<stop  offset="1" style="stop-color:#000000"/>
		</linearGradient>
		<path opacity="0.15" fill-rule="evenodd" clip-rule="evenodd" fill="url(#SVGID_5_)" d="M369.506,127.261
			c-0.73,0.42-1.269,1.12-1.675,2.058c7.872,1.538,22.872,22.063,22.872,22.063l8.179-4.723
			C398.882,146.659,376.102,123.451,369.506,127.261z"/>
		
			<linearGradient id="SVGID_6_" gradientUnits="userSpaceOnUse" x1="290.6552" y1="217.0285" x2="308.8759" y2="217.0285" gradientTransform="matrix(0.866 -0.5 0.5 0.866 -94.0664 162.4913)">
			<stop  offset="0" style="stop-color:#000000;stop-opacity:0"/>
			<stop  offset="1" style="stop-color:#000000"/>
		</linearGradient>
		<path opacity="0.15" fill-rule="evenodd" clip-rule="evenodd" fill="url(#SVGID_6_)" d="M260.428,190.237
			c-0.728,0.419-1.269,1.12-1.673,2.057c7.87,1.54,22.872,22.064,22.872,22.064l8.179-4.723
			C289.807,209.635,267.027,186.427,260.428,190.237z"/>
		
			<linearGradient id="SVGID_7_" gradientUnits="userSpaceOnUse" x1="543.4613" y1="420.7533" x2="543.4613" y2="291.02" gradientTransform="matrix(0.866 -0.5 0.5 0.866 -94.0664 162.4913)">
			<stop  offset="0" style="stop-color:#000000"/>
			<stop  offset="1" style="stop-color:#000000;stop-opacity:0"/>
		</linearGradient>
		<path opacity="0.15" fill-rule="evenodd" clip-rule="evenodd" fill="url(#SVGID_7_)" d="M516.645,259.275
			c0,0,33.874,24.535,39.682,13.814c7.255-13.377-22.38-51.484-17.292-61.062c5.898-11.066,39.487,20.492,45.641,7.971
			c6.351-12.926-27.724-44.907-20.516-56.776c5.912-9.742,36.76,22.359,41.619,10.876c3.753-8.907-12.005-37.548-33.938-60.421
			c16.144,19.985,14.13,35.351,11.01,42.752c-4.859,11.483-23.378-15.009-29.29-5.267c-7.208,11.869,14.538,38.241,8.187,51.168
			c-6.154,12.521-27.414-13.428-33.314-2.363c-5.086,9.578,12.222,42.077,4.965,55.453c-4.276,7.874-11.392,2.31-21.4-4.152
			L516.645,259.275z"/>
		
			<linearGradient id="SVGID_8_" gradientUnits="userSpaceOnUse" x1="165.6122" y1="422.3217" x2="165.5997" y2="289.3982" gradientTransform="matrix(0.866 -0.5 0.5 0.866 -94.0664 162.4913)">
			<stop  offset="0" style="stop-color:#000000"/>
			<stop  offset="1" style="stop-color:#000000;stop-opacity:0"/>
		</linearGradient>
		<path opacity="0.15" fill-rule="evenodd" clip-rule="evenodd" fill="url(#SVGID_8_)" d="M298.474,385.236
			c0,0,4.313,41.6-7.893,41.28c-15.196-0.414-33.38-45.132-44.236-45.505c-12.515-0.435-1.978,44.433-15.898,43.501
			c-14.372-0.961-25.049-46.451-38.931-46.145c-11.375,0.242,1.003,43.004-11.373,41.471c-9.608-1.191-26.531-29.161-35.372-59.591
			c9.252,23.964,23.567,29.903,31.535,30.901c12.376,1.533-1.31-27.751,10.067-27.988c13.88-0.308,25.865,31.701,40.237,32.662
			c13.919,0.933,2.075-30.455,14.59-30.02c10.859,0.373,30.348,31.613,45.542,32.027c8.977,0.221,7.714-8.721,7.105-20.611
			L298.474,385.236z"/>
		
			<linearGradient id="SVGID_9_" gradientUnits="userSpaceOnUse" x1="543.7905" y1="578.3709" x2="543.7905" y2="484.116" gradientTransform="matrix(0.866 -0.5 0.5 0.866 -94.0664 162.4913)">
			<stop  offset="0" style="stop-color:#000000"/>
			<stop  offset="1" style="stop-color:#000000;stop-opacity:0"/>
		</linearGradient>
		<path opacity="0.15" fill-rule="evenodd" clip-rule="evenodd" fill="url(#SVGID_9_)" d="M594.949,394.939l15.869,27.49
			c74.32-42.908,81.977-150.056,57.801-141.551c-0.646,0.229-1.298,0.531-1.935,0.849
			C683.467,310.796,637.43,376.157,594.949,394.939z"/>
	</g>
</g>
</svg>
