<?xml version="1.0" encoding="utf-8"?>
<!-- Generator: Adobe Illustrator 17.1.0, SVG Export Plug-In . SVG Version: 6.00 Build 0)  -->
<!DOCTYPE svg PUBLIC "-//W3C//DTD SVG 1.1//EN" "http://www.w3.org/Graphics/SVG/1.1/DTD/svg11.dtd">
<svg version="1.1" id="Layer_1" xmlns="http://www.w3.org/2000/svg" xmlns:xlink="http://www.w3.org/1999/xlink" x="0px" y="0px"
	 viewBox="0 0 240 240" enable-background="new 0 0 240 240" xml:space="preserve">
<path fill="#222222" d="M183.549,88.819c0.894-0.411,1.768-0.926,2.514-1.671l4.288-4.288c3.349-3.349,3.349-8.769,0-12.118
	c-3.349-3.349-8.769-3.349-12.118,0l-4.288,4.288c-0.437,0.437-0.662,0.984-0.984,1.485c-11.887-11.244-27.329-18.772-44.481-20.656
	c0.006-0.161,0.096-0.309,0.096-0.482v-8.57h8.57c4.712,0,8.57-3.857,8.57-8.57s-3.857-8.57-8.57-8.57h-34.285
	c-4.712,0-8.57,3.857-8.57,8.57s3.857,8.57,8.57,8.57h8.57v8.57c0,0.174,0.084,0.315,0.103,0.489
	c-38.624,4.217-68.679,36.921-68.679,76.657c0,42.61,34.536,77.146,77.146,77.146s77.146-34.536,77.146-77.146
	c0-16.233-5.04-31.27-13.597-43.697V88.819z M120,192.522c-33.076,0-60-26.917-60-60s26.924-60,60-60s60,26.917,60,60
	S153.076,192.522,120,192.522z"/>
<path fill="#222222" d="M128.57,123.946V106.8c0-4.712-3.857-8.57-8.57-8.57s-8.57,3.857-8.57,8.57v25.715
	c0,4.712,3.857,8.57,8.57,8.57h25.715c4.712,0,8.57-3.857,8.57-8.57c0-4.712-3.857-8.57-8.57-8.57H128.57z"/>
<path fill="#222222" d="M120,81.091c-28.39,0-51.43,23.041-51.43,51.43s23.041,51.43,51.43,51.43s51.43-23.041,51.43-51.43
	S148.39,81.091,120,81.091z M120,175.376c-23.632,0-42.861-19.229-42.861-42.861S96.368,89.655,120,89.655
	s42.861,19.229,42.861,42.861S143.632,175.376,120,175.376z"/>
</svg>
