<?xml version="1.0" encoding="utf-8"?>
<!-- Generator: Adobe Illustrator 17.1.0, SVG Export Plug-In . SVG Version: 6.00 Build 0)  -->
<!DOCTYPE svg PUBLIC "-//W3C//DTD SVG 1.1//EN" "http://www.w3.org/Graphics/SVG/1.1/DTD/svg11.dtd">
<svg version="1.1" id="Layer_1" xmlns="http://www.w3.org/2000/svg" xmlns:xlink="http://www.w3.org/1999/xlink" x="0px" y="0px"
	 viewBox="0 0 240 240" enable-background="new 0 0 240 240" xml:space="preserve">
<path fill="#222222" d="M73.8,57.1c-0.1-12.7,10.3-18.7,10.8-19c-5.9-8.6-15-9.8-18.3-9.9c-7.8-0.8-15.2,4.6-19.1,4.6
	c-3.9,0-10-4.5-16.5-4.4c-8.5,0.1-16.3,4.9-20.7,12.5c-8.8,15.3-2.3,38,6.3,50.4c4.2,6.1,9.2,12.9,15.8,12.7
	c6.3-0.3,8.7-4.1,16.4-4.1c7.7,0,9.8,4.1,16.5,4c6.8-0.1,11.1-6.2,15.3-12.3c4.8-7,6.8-13.9,6.9-14.2C87,77.3,73.9,72.3,73.8,57.1z
	 M61.2,20c3.5-4.2,5.8-10.1,5.2-16c-5,0.2-11.1,3.3-14.7,7.6c-3.2,3.7-6.1,9.7-5.3,15.5C52,27.5,57.7,24.2,61.2,20z"/>
<path fill="#222222" d="M131.9,78.3l0-32.5l40-5.4v37.9H131.9z M178.5,39.4l53.3-7.8v46.7h-53.3L178.5,39.4L178.5,39.4z M231.9,85
	l0,46.7l-53.3-7.5V85H231.9z M171.9,123.3l-40-5.5l0-32.8h40V123.3z"/>
<path fill="#222222" d="M102.4,201.4c-7.2,3.4-13.9,3.3-18.4,3c-5.4-0.4-9.7-1.9-11.6-3.1c-1.2-0.8-2.8-0.5-3.5,0.7
	s-0.5,2.8,0.7,3.5c3,2.1,8.4,3.6,14.1,4c1,0.1,2,0.1,3.1,0.1c4.9,0,11.1-0.5,17.8-3.6c1.3-0.6,1.8-2.1,1.2-3.4
	C105.2,201.4,103.6,200.8,102.4,201.4C102.4,201.4,102.4,201.4,102.4,201.4z M130.8,197.6c0.2-22.2,2.5-64.2-40-60.8
	c-42,3.4-30.8,47.7-31.5,62.6c-0.6,7.9-3.2,17.5-6.8,27.2h11.3c1.2-4.1,2-8.2,2.4-12.1c0.7,0.5,1.4,0.9,2.2,1.4
	c1.3,0.7,2.4,1.7,3.5,2.8c2.7,2.5,5.8,5.3,11.8,5.6c0.4,0,0.8,0,1.2,0c6.1,0,10.2-2.6,13.5-4.8c1.6-1,3-1.9,4.3-2.3
	c3.7-1.2,6.9-3,9.3-5.4c0.4-0.4,0.7-0.8,1.1-1.1c1.3,4.9,3.2,10.4,5.2,16h24.2C136.7,217.7,130.7,208.9,130.8,197.6z M63.4,185.6
	L63.4,185.6c-0.4-7.3,3.1-13.3,7.7-13.6s8.8,5.4,9.3,12.6v0c0,0.4,0,0.8,0,1.2c-1.5,0.4-2.8,0.9-4,1.6c0-0.1,0-0.1,0-0.2v0
	c-0.4-4.1-2.6-7.2-4.9-6.9c-2.3,0.3-3.9,3.8-3.5,8v0c0.2,1.8,0.7,3.4,1.4,4.6c-0.2,0.1-0.7,0.5-1.3,0.9c-0.4,0.3-1,0.7-1.6,1.2
	C64.8,192.6,63.6,189.3,63.4,185.6L63.4,185.6z M110.9,203.5c-0.2,3.8-5.2,7.4-9.8,8.9l0,0c-1.9,0.6-3.6,1.7-5.5,2.9
	c-3.1,2-6.2,4-10.8,4c-0.3,0-0.6,0-0.9,0c-4.2-0.2-6.1-2-8.6-4.3c-1.3-1.2-2.7-2.4-4.4-3.4l0,0c-3.8-2.1-6.1-4.8-6.2-7
	c-0.1-1.1,0.4-2.1,1.5-2.9c2.3-1.8,3.9-2.9,4.9-3.7c1.2-0.8,1.5-1.1,1.8-1.3c0.2-0.2,0.4-0.4,0.6-0.6c2.1-2.1,5.7-5.6,11.3-5.6
	c3.4,0,7.1,1.3,11.1,3.9c1.9,1.2,3.5,1.8,5.6,2.5c1.4,0.5,3,1,5.2,2l0,0C108.7,199.5,111,201,110.9,203.5z M109.8,194.5
	c-0.4-0.2-0.8-0.4-1.2-0.6c-1.9-0.8-3.5-1.4-4.8-1.8c0.7-1.4,1.2-3.1,1.2-5v0c0.1-4.6-2.2-8.3-5.2-8.3c-3,0-5.4,3.7-5.5,8.3v0
	c0,0.2,0,0.3,0,0.4c-1.8-0.8-3.6-1.4-5.4-1.8c0-0.2,0-0.3,0-0.5c0,0,0,0,0,0c-0.2-8.4,5-15.3,11.5-15.5s11.9,6.5,12.1,14.9
	c0,0,0,0,0,0C112.6,188.3,111.6,191.8,109.8,194.5L109.8,194.5L109.8,194.5z"/>
</svg>
