<?xml version="1.0" encoding="utf-8"?>
<!-- Generator: Adobe Illustrator 17.1.0, SVG Export Plug-In . SVG Version: 6.00 Build 0)  -->
<!DOCTYPE svg PUBLIC "-//W3C//DTD SVG 1.1//EN" "http://www.w3.org/Graphics/SVG/1.1/DTD/svg11.dtd">
<svg version="1.1" id="Layer_1" xmlns="http://www.w3.org/2000/svg" xmlns:xlink="http://www.w3.org/1999/xlink" x="0px" y="0px"
	 viewBox="0 0 240 240" enable-background="new 0 0 240 240" xml:space="preserve">
<path fill="#222222" d="M116.173,16.18v0.047c-0.367-0.027-0.74-0.047-1.113-0.047c-7.365,0-13.33,5.965-13.33,13.33
	c0,0.267,0.013,0.527,0.027,0.786c-7.378,0.966-14.65,2.813-21.621,5.525C68.638,40.28,57.993,47.065,49.009,55.663
	c-8.991,8.591-16.323,19.002-21.381,30.486c-5.072,11.477-7.838,24.027-8.105,36.671c-0.287,12.644,1.92,25.414,6.565,37.311
	c4.626,11.904,11.657,22.914,20.562,32.205c8.898,9.298,19.675,16.876,31.566,22.101c11.884,5.239,24.881,8.091,37.951,8.358
	c13.07,0.293,26.287-2.006,38.591-6.818c12.31-4.792,23.688-12.07,33.285-21.281c9.604-9.204,17.429-20.348,22.821-32.645
	c5.412-12.284,8.345-25.727,8.611-39.224c0.293-13.497-2.086-27.16-7.072-39.864c-4.965-12.717-12.49-24.461-22.008-34.365
	c-9.511-9.911-21.022-17.989-33.725-23.548c-12.697-5.585-26.58-8.605-40.503-8.871H116.173z M80.781,37.361
	c6.698-2.966,13.783-5.112,21.035-6.412c0.72,6.685,6.372,11.89,13.25,11.89c0.38,0,0.746-0.013,1.113-0.047v0.047
	c10.511-0.287,21.062,1.493,30.932,5.292c9.871,3.786,19.042,9.578,26.8,16.949c7.765,7.372,14.103,16.303,18.489,26.167
	c4.399,9.858,6.818,20.628,7.092,31.566c0.28,10.931-1.58,21.928-5.552,32.205c-3.959,10.277-9.998,19.822-17.676,27.887
	c-7.671,8.071-16.976,14.663-27.247,19.215c-10.264,4.566-21.481,7.072-32.845,7.345c-11.364,0.28-22.801-1.666-33.485-5.805
	c-10.684-4.126-20.595-10.411-28.966-18.395c-8.378-7.978-15.216-17.649-19.935-28.326c-4.739-10.664-7.325-22.328-7.598-34.118
	c-0.287-11.784,1.753-23.674,6.059-34.758c4.286-11.091,10.824-21.368,19.115-30.046c8.285-8.685,18.322-15.769,29.406-20.655
	H80.781z M61.665,96.673h23.334c4.905,0,9.285,2.605,12.339,6.675c2.165-4.025,4.86-7.755,7.94-11.08
	c-5.355-5.485-12.439-8.925-20.279-8.925H61.665c-3.685,0-6.665,2.985-6.665,6.665S57.98,96.673,61.665,96.673z M112.898,117.412
	c3.675-11.045,15.039-20.739,24.324-20.739h12.254l-8.62,8.62c-2.605,2.605-2.605,6.82,0,9.425c1.3,1.3,3.005,1.955,4.715,1.955
	c1.71,0,3.415-0.655,4.715-1.955L175,90.003l-24.714-24.714c-2.605-2.605-6.82-2.605-9.425,0c-2.605,2.605-2.605,6.82,0,9.425
	l8.62,8.62h-12.254c-15.159,0-31.404,13.114-36.978,29.859l-3.145,9.405c-4.275,12.839-13.814,20.734-18.764,20.734H61.675
	c-3.685,0-6.665,2.985-6.665,6.665c0,3.68,2.98,6.665,6.665,6.665h16.664c12.244,0,25.754-12.834,31.419-29.859l3.145-9.4
	L112.898,117.412z M140.856,125.292c-2.605,2.605-2.605,6.82,0,9.425l8.62,8.62h-15.584c-8.455,0-15.534-5.94-17.939-14.054
	c-1.705,5-4.18,9.995-7.265,14.564c5.905,7.745,14.954,12.819,25.204,12.819h15.584l-8.62,8.62c-2.605,2.605-2.605,6.82,0,9.425
	c1.3,1.3,3.005,1.955,4.715,1.955c1.71,0,3.415-0.655,4.715-1.955L175,149.996l-24.714-24.714c-2.605-2.605-6.82-2.605-9.425,0
	L140.856,125.292z"/>
</svg>
